<svg width="32" height="32" viewBox="0 0 32 32" fill="none" xmlns="http://www.w3.org/2000/svg">
<rect width="32" height="32" rx="4" fill="#001560"/>
<path fill-rule="evenodd" clip-rule="evenodd" d="M9.11719 16.1053C9.11719 12.0525 12.0455 8.90527 16.3447 8.90527C20.4213 8.90527 23.2144 12.1876 23.2144 16.1328C23.2144 16.5307 23.1629 16.9551 23.1095 17.332H12.1392L12.1496 17.3799C12.3856 18.4626 12.9414 19.2833 13.7172 19.8329C14.4925 20.3822 15.485 20.6591 16.5925 20.6591C18.2391 20.6591 19.4816 19.9255 20.155 18.9655L22.5368 20.3571C21.2765 22.1964 19.2336 23.3053 16.5649 23.3053C14.3033 23.3053 12.4418 22.531 11.1459 21.2454C9.84995 19.9597 9.11719 18.1602 9.11719 16.1053ZM16.3172 11.5239C15.1943 11.5239 14.2492 11.8567 13.5324 12.4517C12.8158 13.0466 12.3299 13.9015 12.122 14.9414L12.1125 14.9886H20.3004L20.2924 14.9424C20.0844 13.75 19.5429 12.8945 18.8257 12.3374C18.1089 11.7806 17.2191 11.5239 16.3172 11.5239Z" fill="#35B2FF"/>
</svg>
